<?xml version="1.0" encoding="utf-8"?>
<!-- Generator: Adobe Illustrator 24.3.0, SVG Export Plug-In . SVG Version: 6.00 Build 0)  -->
<svg version="1.1" id="Layer_1" xmlns="http://www.w3.org/2000/svg" xmlns:xlink="http://www.w3.org/1999/xlink" x="0px" y="0px"
	 viewBox="0 0 2000 1916.69" style="enable-background:new 0 0 2000 1916.69;" xml:space="preserve">
<style type="text/css">
	.st0{fill:#F28705;}
	.st1{fill:#191919;}
	.st2{fill:#012E40;}
	.st3{fill:#038C8C;}
</style>
<rect x="-4366.34" y="2075.99" class="st0" width="2000" height="2000"/>
<rect x="-4366.34" y="-41.66" class="st1" width="2000" height="2000"/>
<g>
	<g>
		<path class="st2" d="M-1472.39,1119.23v-4.4h18.71c0.91,0,1.69-0.32,2.33-0.97c0.65-0.65,0.97-1.42,0.97-2.33
			c0-0.91-0.32-1.69-0.97-2.33c-0.65-0.65-1.42-0.97-2.33-0.97h-11.01c-2.13,0-3.94-0.75-5.45-2.26c-1.5-1.5-2.26-3.32-2.26-5.45
			c0-2.13,0.75-3.94,2.26-5.45c1.5-1.5,3.32-2.26,5.45-2.26h9.91v4.4h-9.91c-0.91,0-1.69,0.32-2.33,0.97
			c-0.65,0.65-0.97,1.42-0.97,2.33c0,0.91,0.32,1.69,0.97,2.33c0.65,0.65,1.42,0.97,2.33,0.97h11.01c2.13,0,3.94,0.75,5.45,2.26
			c1.5,1.5,2.26,3.32,2.26,5.45c0,2.13-0.75,3.94-2.26,5.45c-1.5,1.5-3.32,2.26-5.45,2.26H-1472.39z"/>
		<path class="st2" d="M-1421.33,1119.23h-4.4v-26.42h4.4V1119.23z"/>
		<path class="st2" d="M-1396.69,1100.47v18.76h-4.4v-26.42l0.04,0.04l21.97,12.7v-12.75h4.4v26.42h-4.4v-8.59L-1396.69,1100.47z"/>
		<path class="st2" d="M-1341.23,1092.81h13.21v4.4h-13.21c-2.44,0-4.51,0.86-6.23,2.58c-1.72,1.72-2.58,3.79-2.58,6.23
			c0,2.44,0.86,4.51,2.58,6.23c1.72,1.72,3.79,2.58,6.23,2.58h8.81v-6.6h-8.81v-4.4h13.21v15.41h-13.21c-3.65,0-6.77-1.29-9.35-3.86
			c-2.58-2.58-3.86-5.69-3.86-9.35c0-3.65,1.29-6.77,3.86-9.35C-1348,1094.1-1344.88,1092.81-1341.23,1092.81z"/>
		<path class="st2" d="M-1274.16,1100.47v18.76h-4.4v-26.42l0.04,0.04l21.97,12.7v-12.75h4.4v26.42h-4.4v-8.59L-1274.16,1100.47z"/>
		<path class="st2" d="M-1198.28,1119.23h-4.4v-26.42h4.4V1119.23z M-1176.27,1119.23h-4.4v-11.01h-15.41v-4.4h15.41v-11.01h4.4
			V1119.23z"/>
		<path class="st2" d="M-1142.82,1119.23c-3.65,0-6.77-1.29-9.35-3.86c-2.58-2.58-3.86-5.69-3.86-9.35c0-3.65,1.29-6.77,3.86-9.35
			c2.58-2.58,5.69-3.86,9.35-3.86c3.65,0,6.77,1.29,9.35,3.86c2.58,2.58,3.86,5.69,3.86,9.35c0,3.65-1.29,6.77-3.86,9.35
			C-1136.05,1117.94-1139.17,1119.23-1142.82,1119.23z M-1142.82,1114.83c2.44,0,4.51-0.86,6.23-2.58c1.72-1.72,2.58-3.79,2.58-6.23
			c0-2.44-0.86-4.51-2.58-6.23c-1.72-1.72-3.79-2.58-6.23-2.58c-2.44,0-4.51,0.86-6.23,2.58c-1.72,1.72-2.58,3.79-2.58,6.23
			c0,2.44,0.86,4.51,2.58,6.23C-1147.34,1113.97-1145.26,1114.83-1142.82,1114.83z"/>
		<path class="st2" d="M-1104.97,1097.22v22.02h-4.4v-26.42h18.71c2.13,0,3.94,0.75,5.45,2.26c1.5,1.5,2.26,3.32,2.26,5.45
			c0,2.13-0.75,3.94-2.26,5.45c-1.5,1.5-3.32,2.26-5.45,2.26h-7.71v-4.4h7.71c0.91,0,1.69-0.32,2.33-0.97
			c0.65-0.65,0.97-1.42,0.97-2.33c0-0.91-0.32-1.69-0.97-2.33c-0.65-0.65-1.42-0.97-2.33-0.97H-1104.97z"/>
		<path class="st2" d="M-1058.32,1114.83h22.02v4.4h-26.42v-26.42h26.42v4.4h-22.02V1114.83z M-1036.3,1108.22h-15.41v-4.4h15.41
			V1108.22z"/>
	</g>
	<g>
		<g>
			<g>
				<polygon class="st2" points="-1306.79,765.71 -1296.1,747.17 -1317.5,747.17 -1328.2,765.71 -1360.09,820.95 -1338.69,820.95 
									"/>
				<polygon class="st2" points="-1529.24,1151 -1516.49,1128.92 -1537.89,1128.92 -1561.34,1169.54 -1296.09,1169.54 
					-1306.79,1151 				"/>
				<polygon class="st2" points="-1148.6,820.95 -1170,820.95 -1201.9,765.71 -1212.59,747.17 -1254.34,674.86 -1296.1,747.17 
					-1317.5,747.17 -1254.34,637.78 -1191.19,747.17 -1180.49,765.71 				"/>
				<polygon class="st2" points="-992.19,1128.92 -979.45,1151 -1306.79,1151 -1296.09,1169.54 -947.34,1169.54 -970.8,1128.92 				
					"/>
			</g>
			<g>
				<polygon class="st0" points="-1201.9,765.71 -1212.59,747.17 -1561.34,747.17 -1511.76,833.08 -1499.97,821.29 -1497.16,821.29 
					-1529.24,765.71 				"/>
				<polygon class="st0" points="-979.45,765.71 -1011.35,820.95 -989.94,820.95 -947.34,747.17 -1191.19,747.17 -1180.49,765.71 
									"/>
				<polygon class="st0" points="-1189.89,1130.2 -1201.9,1151 -1180.5,1151 -1168.49,1130.2 				"/>
				<polygon class="st0" points="-1254.34,1241.83 -1296.09,1169.54 -1306.79,1151 -1318.8,1130.2 -1340.19,1130.2 -1328.19,1151 
					-1317.5,1169.54 -1254.34,1278.91 -1191.19,1169.54 -1212.6,1169.54 				"/>
			</g>
		</g>
		<g>
			<path class="st3" d="M-1437.3,839.83v188c0,31.45-25.73,57.18-57.18,57.18c-31.45,0-57.18-25.73-57.18-57.18h57.18V897.01
				C-1494.48,865.56-1468.75,839.83-1437.3,839.83z"/>
			<path class="st3" d="M-1312.23,1027.83h115.07c0,31.8-25.73,57.18-57.18,57.18h-156.88l115.42-187.64h-115.78
				c0-31.45,25.37-57.18,57.18-57.18h157.59L-1312.23,1027.83z"/>
			<path class="st3" d="M-957.03,839.83v188c0,31.45-25.73,57.18-57.18,57.18v-87.94h-100.06V1085c-31.45,0-57.18-25.73-57.18-57.18
				v-188c31.45,0,57.18,25.73,57.18,57.18v42.88h100.06v-42.88C-1014.21,865.56-988.48,839.83-957.03,839.83z"/>
		</g>
	</g>
</g>
<g>
	<g>
		<path class="st2" d="M-3668.92,3242.64c-1.25,2.23-3.15,4.02-5.7,5.36c-2.55,1.35-5.68,2.03-9.38,2.03c-3.6,0-6.83-0.64-9.68-1.91
			c-2.85-1.28-5.13-3.06-6.83-5.37c-1.7-2.3-2.68-4.95-2.93-7.95h9.15c0.25,2.3,1.24,4.28,2.96,5.93c1.73,1.65,4.04,2.48,6.94,2.48
			c2.6,0,4.61-0.7,6.04-2.1c1.43-1.4,2.14-3.2,2.14-5.4c0-1.9-0.53-3.46-1.58-4.69c-1.05-1.22-2.35-2.19-3.9-2.89
			c-1.55-0.7-3.68-1.5-6.38-2.4c-3.3-1.05-5.99-2.1-8.07-3.15c-2.08-1.05-3.84-2.58-5.29-4.58c-1.45-2-2.18-4.63-2.18-7.88
			c0-2.85,0.7-5.35,2.1-7.5c1.4-2.15,3.4-3.81,6-4.99c2.6-1.17,5.6-1.76,9-1.76c5.4,0,9.69,1.3,12.87,3.9c3.18,2.6,4.99,6,5.44,10.2
			h-9.23c-0.35-2-1.29-3.71-2.81-5.14c-1.53-1.43-3.61-2.14-6.26-2.14c-2.4,0-4.33,0.61-5.78,1.84c-1.45,1.23-2.18,2.99-2.18,5.29
			c0,1.8,0.5,3.29,1.5,4.46c1,1.18,2.26,2.1,3.79,2.78c1.53,0.68,3.61,1.46,6.26,2.36c3.35,1.05,6.09,2.11,8.22,3.19
			c2.13,1.08,3.93,2.64,5.4,4.69c1.47,2.05,2.21,4.75,2.21,8.1C-3667.05,3238-3667.67,3240.41-3668.92,3242.64z"/>
		<path class="st2" d="M-3627.43,3196.54v52.97h-8.55v-52.97H-3627.43z"/>
		<path class="st2" d="M-3551.73,3249.5h-8.55l-25.73-39.09v39.09h-8.55v-52.89h8.55l25.73,39.24v-39.24h8.55V3249.5z"/>
		<path class="st2" d="M-3478.88,3200.74c4.2,3.1,6.98,7.33,8.33,12.68h-9c-1.15-2.85-3.04-5.13-5.66-6.83
			c-2.63-1.7-5.74-2.55-9.34-2.55c-3.3,0-6.26,0.78-8.89,2.32c-2.63,1.55-4.68,3.75-6.15,6.6c-1.48,2.85-2.21,6.2-2.21,10.05
			c0,4.05,0.75,7.53,2.25,10.43c1.5,2.9,3.61,5.11,6.34,6.64c2.73,1.53,5.89,2.29,9.49,2.29c4.4,0,8.18-1.36,11.33-4.09
			c3.15-2.73,5.05-6.46,5.7-11.21h-19.43v-6.3h26.63v8.18c-0.6,3.9-1.99,7.44-4.16,10.62c-2.18,3.18-5.05,5.71-8.63,7.62
			c-3.58,1.9-7.67,2.85-12.27,2.85c-5.15,0-9.7-1.15-13.65-3.45c-3.95-2.3-7-5.49-9.15-9.57c-2.15-4.08-3.23-8.74-3.23-13.99
			c0-5.25,1.08-9.92,3.23-13.99c2.15-4.08,5.19-7.25,9.12-9.53c3.93-2.27,8.47-3.41,13.62-3.41
			C-3488.34,3196.09-3483.08,3197.64-3478.88,3200.74z"/>
		<path class="st2" d="M-3355.47,3249.5h-8.55l-25.73-39.09v39.09h-8.55v-52.89h8.55l25.73,39.24v-39.24h8.55V3249.5z"/>
		<path class="st2" d="M-3240.45,3196.54v52.97h-8.63v-23.78h-24.91v23.78h-8.55v-52.97h8.55v22.21h24.91v-22.21H-3240.45z"/>
		<path class="st2" d="M-3169.74,3199.31c3.98,2.3,7.1,5.51,9.38,9.64c2.28,4.13,3.41,8.79,3.41,13.99c0,5.2-1.14,9.87-3.41,13.99
			c-2.28,4.13-5.4,7.35-9.38,9.68c-3.98,2.33-8.42,3.49-13.32,3.49c-4.95,0-9.42-1.16-13.39-3.49c-3.98-2.33-7.12-5.55-9.42-9.68
			c-2.3-4.13-3.45-8.79-3.45-13.99c0-5.2,1.15-9.87,3.45-13.99c2.3-4.13,5.44-7.34,9.42-9.64c3.98-2.3,8.44-3.45,13.39-3.45
			C-3178.16,3195.86-3173.72,3197.01-3169.74,3199.31z M-3192.14,3206.14c-2.65,1.55-4.71,3.78-6.19,6.68
			c-1.48,2.9-2.21,6.28-2.21,10.13c0,3.85,0.74,7.23,2.21,10.13c1.48,2.9,3.54,5.13,6.19,6.68c2.65,1.55,5.68,2.33,9.08,2.33
			c3.35,0,6.34-0.78,8.97-2.33c2.63-1.55,4.68-3.78,6.15-6.68c1.47-2.9,2.21-6.28,2.21-10.13c0-3.85-0.74-7.23-2.21-10.13
			c-1.48-2.9-3.53-5.13-6.15-6.68c-2.63-1.55-5.62-2.33-8.97-2.33C-3186.46,3203.81-3189.49,3204.59-3192.14,3206.14z"/>
		<path class="st2" d="M-3117.26,3228.95v20.56h-8.55v-52.97h18.01c6.1,0,10.69,1.45,13.77,4.35c3.08,2.9,4.61,6.88,4.61,11.93
			c0,5-1.58,8.94-4.73,11.82c-3.15,2.88-7.7,4.32-13.65,4.32H-3117.26z M-3098.13,3212.82c0-3-0.84-5.29-2.51-6.87
			c-1.68-1.58-4.36-2.36-8.07-2.36h-8.55v18.38h8.55C-3101.65,3221.97-3098.13,3218.92-3098.13,3212.82z"/>
		<path class="st2" d="M-3050.86,3203.44v16.06h19.51v6.6h-19.51v16.43h21.76v6.98h-30.31v-52.97h30.31v6.9H-3050.86z"/>
	</g>
	<g>
		<polygon class="st2" points="-3063.12,2901.88 -3063.12,3018.81 -3265.13,3018.81 -3265.13,2901.88 -3299.15,2901.88 
			-3299.15,2935.91 -3519.04,3137.9 -3299.15,3137.9 -3299.15,3171.5 -3265.13,3171.5 -3265.13,3052.82 -3063.12,3052.82 
			-3063.12,3171.5 -3029.11,3171.5 -3029.11,2901.88 		"/>
		<path class="st2" d="M-3568.77,2935.91v-34.04h-33.6v134.81c0,55.4-45.36,100.78-101.21,100.78v34.04h134.81v-33.6l219.87-201.99
			H-3568.77z"/>
	</g>
</g>
<g>
	<g>
		<g>
			<path class="st0" d="M-3616.98,1100.36c-3.36,0-7.18-0.31-11.47-0.92c-4.28-0.62-8.26-1.83-11.93-3.67
				c-3.67-1.83-6.49-4.36-8.49-7.57c-1.99-3.21-2.52-7.42-1.61-12.61c0.92-4.29,2.68-7.73,5.28-10.32c2.6-2.6,5.58-4.59,8.95-5.96
				c3.37-1.38,6.81-2.29,10.32-2.75c3.52-0.46,6.65-0.69,9.4-0.69c9.48,0,18.66,1.15,27.52,3.44c8.87,2.29,17.43,4.36,25.69,6.19
				c4.28-4.29,9.25-10.55,14.91-18.81c5.66-8.26,11.7-17.66,18.12-28.21c6.42-10.55,13.07-21.94,19.95-34.17
				c6.88-12.23,13.53-24.31,19.95-36.24c14.98-28.13,30.73-58.72,47.25-91.74l0.46,0.46v-1.83c3.05-1.53,5.81-2.9,8.26-4.13
				c2.44-1.22,4.74-2.14,6.88-2.75c2.14-0.92,4.28-1.68,6.42-2.29c-17.43,3.37-32.19,7.8-44.27,13.3
				c-12.08,5.5-21.87,11.24-29.36,17.2c-7.5,5.96-13.15,11.85-16.97,17.66c-3.83,5.81-6.19,10.55-7.11,14.22
				c-0.92,2.75,0.15,4.13,3.21,4.13c3.36,0,5.96-0.76,7.8-2.29c1.83-1.53,3.44-3.28,4.82-5.28c1.38-1.99,2.67-3.74,3.9-5.28
				c1.22-1.53,3.05-2.29,5.5-2.29c3.36,0,4.59,1.53,3.67,4.59c-0.62,4.29-4.06,8.64-10.32,13.07c-6.27,4.44-13.38,6.65-21.33,6.65
				c-1.83,0-4.13-0.23-6.88-0.69c-2.75-0.46-5.28-1.45-7.57-2.98c-2.29-1.53-4.06-3.74-5.28-6.65c-1.23-2.9-1.38-6.8-0.46-11.7
				c0.92-4.28,4.51-9.93,10.78-16.97c6.26-7.03,14.68-13.91,25.23-20.64c10.55-6.72,22.86-12.54,36.93-17.43
				c14.06-4.89,29.51-7.34,46.33-7.34c2.75,0,5.35,0.16,7.8,0.46c1.83,0.31,3.59,0.77,5.28,1.38c1.68,0.62,2.37,1.38,2.06,2.29
				c0,0.92-0.39,1.61-1.15,2.06c-0.77,0.46-1.76,1-2.98,1.61c-1.23,0.62-2.45,1.61-3.67,2.98c-1.23,1.38-2.45,3.6-3.67,6.65
				c-7.96,20.18-16.82,40.22-26.61,60.09c-9.79,19.88-19.65,38.53-29.59,55.96c-9.94,17.43-19.5,33.03-28.67,46.79
				c-9.17,13.76-17.13,24.77-23.85,33.03c-9.17,10.7-14.68,17.12-16.51,19.27c5.81,1.22,10.93,2.29,15.37,3.21
				c4.43,0.92,9.48,1.68,15.14,2.29c5.66,0.61,11.54,0.92,17.66,0.92c5.2,0,10.09-0.31,14.68-0.92c4.59-0.62,9.48-1.83,14.68-3.67
				c4.28-1.53,6.95-3.29,8.03-5.28c1.07-1.99,2.06-2.98,2.98-2.98s1.99,1.07,3.21,3.21c1.22,2.14,1.53,4.43,0.92,6.88
				c-0.31,1.22-0.77,2.75-1.38,4.59c-0.62,1.83-2.22,3.59-4.82,5.28c-2.6,1.68-6.35,3.13-11.24,4.36
				c-4.9,1.22-11.78,1.83-20.64,1.83c-9.17,0-19.65-1.15-31.42-3.44c-11.78-2.29-23.01-4.67-33.71-7.11
				c-8.26,6.11-18.2,11.24-29.82,15.37C-3596.03,1098.3-3606.89,1100.36-3616.98,1100.36z M-3611.48,1067.34
				c-5.5,0-10.24,0.93-14.22,2.82c-3.97,1.87-6.65,3.98-8.03,6.33c-1.38,2.34-0.99,4.68,1.15,7.03c2.14,2.34,6.73,3.99,13.76,4.92
				c7.04,0,14.22-1.23,21.56-3.67c7.34-2.45,14.07-5.5,20.18-9.17c2.45,0.61,4.82,0.99,7.11,1.15c2.29,0.15,4.2,0.38,5.73,0.69
				c1.83,0.3,3.67,0.46,5.5,0.46c-5.81-0.96-10.94-2-15.37-3.12c-4.43-1.12-8.56-2.24-12.38-3.35c-3.82-1.12-7.72-2.08-11.7-2.87
				C-3602.15,1067.73-3606.58,1067.34-3611.48,1067.34z"/>
		</g>
		<g>
			<path class="st0" d="M-3245.89,851.29v1.38c-0.31,1.83-0.77,3.75-1.38,5.73c-0.62,1.99-1.23,3.44-1.83,4.36
				c-0.62,0.92-3.37,3.29-8.26,7.11c-4.89,3.83-11.01,8.49-18.35,13.99c-7.34,5.5-15.6,11.55-24.77,18.12
				c-9.17,6.58-18.2,13.15-27.06,19.72c-8.87,6.58-17.36,12.77-25.46,18.58c-8.11,5.81-14.91,10.71-20.41,14.68
				c-7.34,5.2-15.3,11.09-23.85,17.66c-8.57,6.58-16.74,13.3-24.54,20.18c-7.8,6.88-14.53,13.69-20.18,20.41
				c-5.66,6.73-9.1,12.84-10.32,18.35c-0.62,3.37-0.31,6.12,0.92,8.26c0.3,0,3.44-0.38,9.4-1.15c5.96-0.76,13.07-1.61,21.33-2.52
				c8.26-0.92,16.66-1.76,25.23-2.52c8.56-0.76,15.44-1.15,20.64-1.15c10.09,0,18.04,1.68,23.85,5.05
				c5.81,3.37,8.26,7.34,7.34,11.93c-1.23,5.81-3.14,10.09-5.73,12.84c-2.6,2.75-4.21,4.13-4.82,4.13c-1.23,0-1.99-0.46-2.29-1.38
				c-0.31-0.31-0.46-0.77-0.46-1.38c0.61-3.37-3.9-5.81-13.53-7.34c-9.63-1.53-22.71-2.6-39.22-3.21c-1.23,0-3.83,0.15-7.8,0.46
				c-3.98,0.3-8.11,0.69-12.39,1.15c-4.29,0.46-8.34,0.84-12.16,1.15c-3.83,0.3-6.04,0.46-6.65,0.46c-5.5-0.62-9.71-2.14-12.61-4.59
				c-2.91-2.44-5.28-6.42-7.11-11.93c-1.83-5.5-1.83-13.3,0-23.39c0.61-3.36,1.83-7.11,3.67-11.24c1.83-4.13,4.74-8.33,8.72-12.61
				c5.81-6.11,15.29-14.29,28.44-24.54c13.15-10.24,27.75-21.33,43.81-33.26c16.06-11.93,32.49-24.31,49.31-37.16
				c16.81-12.84,31.65-24.77,44.49-35.78c-12.54,0-24.24,0.08-35.09,0.23c-10.86,0.16-20.64,0.62-29.36,1.38
				c-8.72,0.77-16.28,2.06-22.71,3.9c-6.42,1.83-11.47,4.44-15.14,7.8l-0.92,0.92c-0.62,0.62-1.38,0.92-2.29,0.92
				s-1.45-1.07-1.61-3.21c-0.16-2.14,0.07-4.13,0.69-5.96c0.61-2.75,1.76-5.58,3.44-8.49c1.68-2.9,4.36-5.58,8.03-8.03
				c3.67-2.44,8.64-4.43,14.91-5.96c6.26-1.53,14.29-2.29,24.08-2.29c9.17,0,20.1,0.23,32.8,0.69c12.69,0.46,26.38,0.69,41.05,0.69
				c5.81,0,10.32,0.23,13.53,0.69c3.21,0.46,5.66,1,7.34,1.61c1.68,0.62,2.82,1.3,3.44,2.06
				C-3247.11,849.53-3246.5,850.37-3245.89,851.29z"/>
		</g>
		<g>
			<path class="st0" d="M-3323.41,1051.74c-0.31-2.15-0.39-4.3-0.23-6.45c0.15-2.15,0.38-4.3,0.69-6.46
				c2.75-12.9,7.49-24.27,14.22-34.1v-0.47c6.72-12.29,14.75-21.73,24.08-28.34c9.32-6.61,18.27-11.45,26.83-14.52
				c10.09-3.38,20.33-5.38,30.73-5.99c1.22-2.42,2.67-5.91,4.36-10.47c1.68-4.56,3.36-9.49,5.05-14.81
				c1.68-5.32,3.21-10.71,4.59-16.18c1.38-5.46,2.52-10.32,3.44-14.58c0.92-3.94,1.38-7.28,1.38-10.02c2.44-0.3,4.66-0.53,6.65-0.69
				c1.99-0.15,3.9-0.23,5.73-0.23h5.96c-8.56,0-16.9-0.38-25-1.15c-8.11-0.76-15.07-1.15-20.87-1.15
				c-7.04-0.61-12.77-3.28-17.2-8.03c-4.44-4.74-5.89-11.08-4.36-19.04c0-0.3,0.23-1.38,0.69-3.21c0.46-1.83,1.38-3.67,2.75-5.5
				c1.38-1.83,3.21-3.51,5.5-5.05c2.29-1.53,5.43-2.29,9.4-2.29c3.97,0,8.56,0.62,13.76,1.83c5.2,1.23,10.24,3.14,15.14,5.73
				c4.89,2.6,9.32,5.81,13.3,9.63c3.97,3.83,6.72,8.34,8.26,13.53c4.89,0,9.78,0.08,14.68,0.23c4.89,0.16,9.25,0.62,13.07,1.38
				c3.82,0.77,6.8,1.91,8.94,3.44c2.14,1.53,3.21,3.83,3.21,6.88c-0.62,3.06-1.61,5.5-2.98,7.34c-1.38,1.83-3.29,3.52-5.73,5.05
				c-2.45,1.53-5.96,2.29-10.55,2.29c-0.92,0-1.15-0.46-0.69-1.38c0.46-0.92,0.46-1.99,0-3.21c-0.46-1.22-1.83-2.52-4.13-3.9
				c-2.29-1.38-6.65-2.52-13.07-3.44c-0.31,3.34-0.54,6.31-0.69,8.89c-0.16,2.58-0.54,5.39-1.15,8.43
				c-1.53,8.2-3.67,16.18-6.42,23.92c-2.75,7.75-6.27,16.48-10.55,26.2c9.17,0,18.27,0.08,27.29,0.23
				c9.02,0.16,18.42-0.07,28.21-0.69c4.59-7.95,9.25-15.83,13.99-23.62c4.74-7.8,9.02-15.06,12.84-21.79
				c3.82-6.72,6.95-12.54,9.4-17.43c2.44-4.89,3.97-8.56,4.59-11.01c0.3-1.83-0.31-2.75-1.83-2.75c-0.31,0-0.85,0.16-1.61,0.46
				c-0.77,0.31-1.46,0.46-2.06,0.46c-1.53,0-2.29-0.3-2.29-0.92c-0.31-0.3-0.31-0.76,0-1.38c0.61-3.05,2.9-5.28,6.88-6.65
				c3.97-1.38,8.87-2.06,14.68-2.06c3.67,0,6.88,0.92,9.63,2.75c2.75,1.83,3.67,5.35,2.75,10.55c-0.62,3.06-2.06,7.04-4.36,11.93
				c-2.29,4.9-5.2,10.32-8.72,16.28c-3.52,5.96-7.42,12.46-11.7,19.49c-4.29,7.04-8.72,14.07-13.3,21.1
				c0.92-0.61,2.44-1.3,4.59-2.06c2.14-0.76,3.97-1.76,5.5-2.98c0.92-0.61,1.99-1.91,3.21-3.9c1.22-1.99,2.14-2.98,2.75-2.98
				c0.92,0,2.06,1,3.44,2.98c1.38,1.99,1.76,4.52,1.15,7.57c-0.31,1.23-0.69,2.52-1.15,3.9c-0.46,1.38-1.61,2.71-3.44,4
				c-1.83,1.29-4.59,2.5-8.26,3.63c-3.67,1.13-8.87,2.18-15.6,3.15c-7.65,12.77-14.91,25.62-21.79,38.53
				c-6.88,12.92-12.01,23.48-15.37,31.69c-0.31,1.52-0.23,2.82,0.23,3.88c0.46,1.06,2.06,1.59,4.82,1.59
				c3.05,0,6.88-2.06,11.47-6.19c4.59-4.13,9.02-8.72,13.3-13.76c4.28-5.05,7.95-9.7,11.01-13.99c3.05-4.28,4.74-6.57,5.05-6.88
				c0.61-1.22,1.38-1.76,2.29-1.61c0.92,0.16,0.61,2.52-0.92,7.11c-1.23,3.37-3.52,7.65-6.88,12.84
				c-3.37,5.2-7.34,10.17-11.93,14.91c-4.59,4.74-9.56,8.94-14.91,12.61c-5.35,3.67-10.32,5.5-14.91,5.5
				c-2.14,0-4.52-0.23-7.11-0.69c-2.6-0.46-5.05-1.45-7.34-2.98c-2.29-1.53-3.98-3.74-5.05-6.65c-1.08-2.9-1.15-6.95-0.23-12.16
				c1.22-6.42,4.74-14.98,10.55-25.69c5.81-10.7,12.69-22.63,20.64-35.78c-6.12,0-10.94,0-14.45,0c-3.52,0-6.88,0.08-10.09,0.23
				c-3.21,0.16-7.04,0.23-11.47,0.23c-4.44,0-10.63,0-18.58,0c-1.23,2.45-3.67,6.96-7.34,13.53c-3.67,6.58-8.11,13.99-13.3,22.25
				c-5.2,8.26-11.09,16.9-17.66,25.92c-6.58,9.02-13.3,17.28-20.18,24.77c-6.88,7.49-13.76,13.6-20.64,18.35
				c-6.88,4.74-13.23,7.11-19.04,7.11c-2.75,0-5.12-0.92-7.11-2.75c-1.99-1.83-3.67-4.13-5.05-6.88c-1.38-2.75-2.37-5.66-2.98-8.72
				C-3323.57,1057.4-3323.72,1054.49-3323.41,1051.74z M-3272.49,979.72c-6.12,4.29-11.24,9.1-15.37,14.45
				c-4.13,5.35-7.42,10.71-9.86,16.05c-2.45,5.35-4.29,10.32-5.5,14.91c-1.23,4.59-1.99,8.11-2.29,10.55
				c-0.62,3.67-0.85,6.65-0.69,8.95c0.15,2.29,0.53,4.06,1.15,5.28c0.61,1.53,1.38,2.59,2.29,3.21c0.92-0.31,1.68-0.46,2.29-0.46
				c3.67-0.92,7.8-3.59,12.39-8.03c4.59-4.43,9.32-9.7,14.22-15.83c4.89-6.11,9.7-12.69,14.45-19.72
				c4.74-7.03,8.94-13.6,12.61-19.72c3.67-6.11,6.72-11.24,9.17-15.37c2.44-4.13,3.82-6.49,4.13-7.11l-1.38,2.75
				c2.44-0.3,4.43-0.61,5.96-0.92c1.53-0.3,2.98-0.53,4.36-0.69c1.38-0.15,2.98-0.3,4.82-0.46c1.83-0.15,4.43-0.38,7.8-0.69
				c-7.65,0-14.38,0.08-20.18,0.23c-5.81,0.16-11.01,0.69-15.6,1.61s-8.87,2.29-12.84,4.13
				C-3264.55,974.68-3268.52,976.97-3272.49,979.72z M-3213.78,874.68c-0.62-0.61-1.23-1.91-1.83-3.9
				c-0.62-1.99-1.68-4.13-3.21-6.42c-1.53-2.29-3.9-4.59-7.11-6.88c-3.21-2.29-7.57-4.05-13.07-5.28c-4.59,0-7.42,0.77-8.49,2.29
				c-1.07,1.53-1.76,2.91-2.06,4.13c-0.62,3.06,0.07,5.66,2.06,7.8c1.99,2.14,4.51,3.83,7.57,5.05c3.05,1.23,6.26,2.14,9.63,2.75
				c3.36,0.62,6.26,0.92,8.72,0.92c1.22,0,2.36,0,3.44,0c1.07,0,2.36-0.15,3.9-0.46H-3213.78z"/>
		</g>
	</g>
	<g>
		<path class="st0" d="M-3366.34,1354.77c-103.12,0-200.07-40.16-272.99-113.07c-72.92-72.92-113.07-169.86-113.07-272.99h11.98
			c0,206.27,167.81,374.08,374.08,374.08c206.27,0,374.08-167.81,374.08-374.08h11.98c0,103.12-40.16,200.07-113.07,272.99
			C-3166.28,1314.62-3263.22,1354.77-3366.34,1354.77z"/>
	</g>
	<g>
		<path class="st0" d="M-3705.56,837.69l-1.59-7.83c4.69-0.47,8.6-3.49,10.65-8.09c2.4-5.37,1.63-10.59-2.02-12.22
			c-4.42-1.97-9.9,3.13-14.79,7.63c-4.99,4.5-10.68,9.43-18.19,6.08c-7.83-3.5-10.26-12.73-6.42-21.33
			c3.05-6.82,8.62-10.46,14.74-10.07l1.37,7.3c-3.9,0.04-7.18,2.53-8.73,6c-1.96,4.39-0.79,9.11,2.59,10.62
			c3.74,1.67,7.05-2.16,12.13-6.86c6.7-6.08,12.97-10.33,20.51-6.97c8.49,3.79,10.66,13.58,6.33,23.28
			C-3692.49,833.1-3698.83,837.42-3705.56,837.69z"/>
		<path class="st0" d="M-3699.48,736.1l4.78-6.69l42.62,30.45l-4.78,6.69L-3699.48,736.1z"/>
		<path class="st0" d="M-3623.5,653.33l35.86,39.6l-0.29,0.26l-48.32-3.45l22.92,25.31l-6.09,5.52l-35.81-39.55l0.31-0.28
			l48.23,3.45l-22.92-25.31L-3623.5,653.33z"/>
		<path class="st0" d="M-3514.22,619.32c7.05,13.87,1.42,27.74-10.71,33.91c-13.58,6.91-29.86,1.55-36.59-11.68
			c-6.74-13.26-1.46-29.69,11.8-36.43c5.89-2.96,14.06-3.54,20.64-1.49l-0.99,8.16c-5.47-1.74-11.55-1.49-15.98,0.76
			c-8.51,4.33-12.94,15.55-8.03,25.22c4.65,9.15,15.75,12.99,25.71,7.92c8.02-4.08,11.56-12.04,7.94-19.16l-0.07-0.14l-14.45,7.35
			l-3.42-6.72l22.1-11.23C-3515.61,616.79-3514.88,618.02-3514.22,619.32z"/>
		<path class="st0" d="M-3357,561.92l1.5,53.39l-0.39,0.01l-34.46-34.03l0.96,34.13l-8.22,0.23l-1.5-53.32l0.42-0.01l34.4,33.97
			l-0.96-34.13L-3357,561.92z"/>
		<path class="st0" d="M-3189.78,602.2l-20.46,48.22l-7.57-3.21l8.64-20.37l-20.88-8.86l-8.64,20.37l-7.54-3.2l20.46-48.22l7.54,3.2
			l-8.63,20.34l20.88,8.86l8.63-20.34L-3189.78,602.2z"/>
		<path class="st0" d="M-3152.85,653.16c9.24-11.74,26.34-13.83,38.06-4.61c11.69,9.2,13.74,26.35,4.5,38.09
			c-9.16,11.64-26.27,13.64-37.99,4.42C-3159.97,681.86-3162.01,664.8-3152.85,653.16z M-3116.79,681.45
			c6.41-8.14,4.97-20.02-3.15-26.41c-8.12-6.39-19.95-4.95-26.36,3.19c-6.37,8.09-4.96,19.91,3.16,26.29
			C-3135.02,690.91-3123.15,689.55-3116.79,681.45z"/>
		<path class="st0" d="M-3052.38,710.39l10.59,13.95c6.13,8.07,4.95,19.36-2.63,25.12c-7.43,5.64-18.49,3.63-24.61-4.44l-5.62-7.4
			l-14.46,10.98l-4.97-6.55L-3052.38,710.39z M-3049.34,742.87c3.98-3.02,4.45-9.13,1.05-13.6l-5.62-7.4l-14.26,10.82l5.59,7.42
			C-3059.2,744.61-3053.25,745.84-3049.34,742.87z"/>
		<path class="st0" d="M-3005.04,801.05l-12.26,5.45l8.05,18.11l-7.48,3.33l-8.05-18.11l-13.24,5.89l9.33,20.99l-7.48,3.33
			l-12.67-28.5l47.86-21.28l12.67,28.5l-7.39,3.29L-3005.04,801.05z"/>
	</g>
	<g>
		<path class="st0" d="M-3366.34,1301.73c-88.95,0-172.58-34.64-235.48-97.54s-97.54-146.52-97.54-235.48s34.64-172.58,97.54-235.48
			s146.52-97.54,235.48-97.54s172.58,34.64,235.48,97.54c62.9,62.9,97.54,146.52,97.54,235.48s-34.64,172.58-97.54,235.48
			C-3193.77,1267.09-3277.39,1301.73-3366.34,1301.73z M-3366.34,647.68c-177.02,0-321.03,144.02-321.03,321.03
			s144.02,321.03,321.03,321.03c177.02,0,321.03-144.02,321.03-321.03S-3189.33,647.68-3366.34,647.68z"/>
	</g>
</g>
<g>
	<g>
		<path d="M-1496.61,3197.58v-4.4h18.71c0.91,0,1.69-0.32,2.33-0.97c0.65-0.65,0.97-1.42,0.97-2.33c0-0.91-0.32-1.69-0.97-2.33
			c-0.65-0.65-1.42-0.97-2.33-0.97h-11.01c-2.13,0-3.94-0.75-5.45-2.26c-1.5-1.5-2.26-3.32-2.26-5.45c0-2.13,0.75-3.94,2.26-5.45
			c1.5-1.5,3.32-2.26,5.45-2.26h9.91v4.4h-9.91c-0.91,0-1.69,0.32-2.33,0.97c-0.65,0.65-0.97,1.42-0.97,2.33
			c0,0.91,0.32,1.69,0.97,2.33c0.65,0.65,1.42,0.97,2.33,0.97h11.01c2.13,0,3.94,0.75,5.45,2.26c1.5,1.5,2.26,3.32,2.26,5.45
			s-0.75,3.94-2.26,5.45c-1.5,1.5-3.32,2.26-5.45,2.26H-1496.61z"/>
		<path d="M-1445.55,3197.58h-4.4v-26.42h4.4V3197.58z"/>
		<path d="M-1420.91,3178.82v18.76h-4.4v-26.42l0.04,0.04l21.97,12.7v-12.75h4.4v26.42h-4.4v-8.59L-1420.91,3178.82z"/>
		<path d="M-1365.44,3171.16h13.21v4.4h-13.21c-2.44,0-4.51,0.86-6.23,2.58c-1.72,1.72-2.58,3.79-2.58,6.23s0.86,4.51,2.58,6.23
			c1.72,1.72,3.79,2.58,6.23,2.58h8.81v-6.6h-8.81v-4.4h13.21v15.41h-13.21c-3.65,0-6.77-1.29-9.35-3.86
			c-2.58-2.58-3.86-5.69-3.86-9.35c0-3.65,1.29-6.77,3.86-9.35C-1372.21,3172.45-1369.1,3171.16-1365.44,3171.16z"/>
		<path d="M-1298.38,3178.82v18.76h-4.4v-26.42l0.04,0.04l21.97,12.7v-12.75h4.4v26.42h-4.4v-8.59L-1298.38,3178.82z"/>
		<path d="M-1222.5,3197.58h-4.4v-26.42h4.4V3197.58z M-1200.49,3197.58h-4.4v-11.01h-15.41v-4.4h15.41v-11.01h4.4V3197.58z"/>
		<path d="M-1167.04,3197.58c-3.65,0-6.77-1.29-9.35-3.86c-2.58-2.58-3.86-5.69-3.86-9.35c0-3.65,1.29-6.77,3.86-9.35
			c2.58-2.58,5.69-3.86,9.35-3.86s6.77,1.29,9.35,3.86c2.58,2.58,3.86,5.69,3.86,9.35c0,3.65-1.29,6.77-3.86,9.35
			C-1160.27,3196.29-1163.38,3197.58-1167.04,3197.58z M-1167.04,3193.17c2.44,0,4.51-0.86,6.23-2.58c1.72-1.72,2.58-3.79,2.58-6.23
			s-0.86-4.51-2.58-6.23c-1.72-1.72-3.79-2.58-6.23-2.58c-2.44,0-4.51,0.86-6.23,2.58c-1.72,1.72-2.58,3.79-2.58,6.23
			s0.86,4.51,2.58,6.23C-1171.55,3192.32-1169.48,3193.17-1167.04,3193.17z"/>
		<path d="M-1129.19,3175.56v22.02h-4.4v-26.42h18.71c2.13,0,3.94,0.75,5.45,2.26c1.5,1.5,2.26,3.32,2.26,5.45
			c0,2.13-0.75,3.94-2.26,5.45c-1.5,1.5-3.32,2.26-5.45,2.26h-7.71v-4.4h7.71c0.91,0,1.69-0.32,2.33-0.97
			c0.65-0.65,0.97-1.42,0.97-2.33c0-0.91-0.32-1.69-0.97-2.33c-0.65-0.65-1.42-0.97-2.33-0.97H-1129.19z"/>
		<path d="M-1082.53,3193.17h22.02v4.4h-26.42v-26.42h26.42v4.4h-22.02V3193.17z M-1060.52,3186.57h-15.41v-4.4h15.41V3186.57z"/>
	</g>
	<g>
		<g>
			<g>
				<polygon points="-1331.01,2844.05 -1320.32,2825.52 -1341.71,2825.52 -1352.42,2844.05 -1384.3,2899.3 -1362.91,2899.3 				"/>
				<polygon points="-1553.46,3229.34 -1540.71,3207.26 -1562.11,3207.26 -1585.56,3247.88 -1320.3,3247.88 -1331.01,3229.34 				
					"/>
				<polygon points="-1172.82,2899.3 -1194.22,2899.3 -1226.12,2844.05 -1236.81,2825.52 -1278.56,2753.2 -1320.32,2825.52 
					-1341.71,2825.52 -1278.56,2716.13 -1215.41,2825.52 -1204.7,2844.05 				"/>
				<polygon points="-1016.41,3207.26 -1003.66,3229.34 -1331.01,3229.34 -1320.3,3247.88 -971.56,3247.88 -995.02,3207.26 				"/>
			</g>
			<g>
				<polygon points="-1226.12,2844.05 -1236.81,2825.52 -1585.56,2825.52 -1535.97,2911.42 -1524.19,2899.64 -1521.38,2899.64 
					-1553.46,2844.05 				"/>
				<polygon points="-1003.66,2844.05 -1035.56,2899.3 -1014.15,2899.3 -971.56,2825.52 -1215.41,2825.52 -1204.7,2844.05 				"/>
				<polygon points="-1214.11,3208.54 -1226.12,3229.34 -1204.72,3229.34 -1192.71,3208.54 				"/>
				<polygon points="-1278.56,3320.18 -1320.3,3247.88 -1331.01,3229.34 -1343.02,3208.54 -1364.41,3208.54 -1352.4,3229.34 
					-1341.71,3247.88 -1278.56,3357.25 -1215.41,3247.88 -1236.82,3247.88 				"/>
			</g>
		</g>
		<g>
			<path d="M-1461.52,2918.18v188c0,31.45-25.73,57.18-57.18,57.18c-31.45,0-57.18-25.73-57.18-57.18h57.18v-130.82
				C-1518.7,2943.91-1492.97,2918.18-1461.52,2918.18z"/>
			<path d="M-1336.45,3106.17h115.07c0,31.8-25.73,57.18-57.18,57.18h-156.88l115.42-187.64h-115.78
				c0-31.45,25.37-57.18,57.18-57.18h157.59L-1336.45,3106.17z"/>
			<path d="M-981.25,2918.18v188c0,31.45-25.73,57.18-57.18,57.18v-87.94h-100.06v87.94c-31.45,0-57.18-25.73-57.18-57.18v-188
				c31.45,0,57.18,25.73,57.18,57.18v42.88h100.06v-42.88C-1038.43,2943.91-1012.7,2918.18-981.25,2918.18z"/>
		</g>
	</g>
</g>
<g>
	<g>
		<path d="M634.15,3242.64c-1.25,2.23-3.15,4.02-5.7,5.36c-2.55,1.35-5.68,2.03-9.38,2.03c-3.6,0-6.83-0.64-9.68-1.91
			c-2.85-1.28-5.13-3.06-6.83-5.37c-1.7-2.3-2.68-4.95-2.93-7.95h9.15c0.25,2.3,1.24,4.28,2.96,5.93c1.73,1.65,4.04,2.48,6.94,2.48
			c2.6,0,4.61-0.7,6.04-2.1c1.43-1.4,2.14-3.2,2.14-5.4c0-1.9-0.53-3.46-1.58-4.69c-1.05-1.22-2.35-2.19-3.9-2.89
			c-1.55-0.7-3.68-1.5-6.38-2.4c-3.3-1.05-5.99-2.1-8.07-3.15c-2.08-1.05-3.84-2.58-5.29-4.58c-1.45-2-2.18-4.63-2.18-7.88
			c0-2.85,0.7-5.35,2.1-7.5c1.4-2.15,3.4-3.81,6-4.99c2.6-1.17,5.6-1.76,9-1.76c5.4,0,9.69,1.3,12.87,3.9c3.18,2.6,4.99,6,5.44,10.2
			h-9.23c-0.35-2-1.29-3.71-2.81-5.14c-1.53-1.43-3.61-2.14-6.26-2.14c-2.4,0-4.33,0.61-5.78,1.84c-1.45,1.23-2.18,2.99-2.18,5.29
			c0,1.8,0.5,3.29,1.5,4.46c1,1.18,2.26,2.1,3.79,2.78c1.53,0.68,3.61,1.46,6.26,2.36c3.35,1.05,6.09,2.11,8.22,3.19
			c2.13,1.08,3.93,2.64,5.4,4.69c1.47,2.05,2.21,4.75,2.21,8.1C636.03,3238,635.4,3240.41,634.15,3242.64z"/>
		<path d="M675.64,3196.54v52.97h-8.55v-52.97H675.64z"/>
		<path d="M751.34,3249.5h-8.55l-25.73-39.09v39.09h-8.55v-52.89h8.55l25.73,39.24v-39.24h8.55V3249.5z"/>
		<path d="M824.19,3200.74c4.2,3.1,6.98,7.33,8.33,12.68h-9c-1.15-2.85-3.04-5.13-5.66-6.83c-2.63-1.7-5.74-2.55-9.34-2.55
			c-3.3,0-6.26,0.78-8.89,2.32c-2.63,1.55-4.68,3.75-6.15,6.6c-1.48,2.85-2.21,6.2-2.21,10.05c0,4.05,0.75,7.53,2.25,10.43
			c1.5,2.9,3.61,5.11,6.34,6.64c2.73,1.53,5.89,2.29,9.49,2.29c4.4,0,8.18-1.36,11.33-4.09c3.15-2.73,5.05-6.46,5.7-11.21h-19.43
			v-6.3h26.63v8.18c-0.6,3.9-1.99,7.44-4.16,10.62c-2.18,3.18-5.05,5.71-8.63,7.62c-3.58,1.9-7.67,2.85-12.27,2.85
			c-5.15,0-9.7-1.15-13.65-3.45c-3.95-2.3-7-5.49-9.15-9.57c-2.15-4.08-3.23-8.74-3.23-13.99c0-5.25,1.08-9.92,3.23-13.99
			c2.15-4.08,5.19-7.25,9.12-9.53c3.93-2.27,8.47-3.41,13.62-3.41C814.74,3196.09,819.99,3197.64,824.19,3200.74z"/>
		<path d="M947.61,3249.5h-8.55l-25.73-39.09v39.09h-8.55v-52.89h8.55l25.73,39.24v-39.24h8.55V3249.5z"/>
		<path d="M1062.62,3196.54v52.97h-8.63v-23.78h-24.91v23.78h-8.55v-52.97h8.55v22.21h24.91v-22.21H1062.62z"/>
		<path d="M1133.33,3199.31c3.98,2.3,7.1,5.51,9.38,9.64c2.27,4.13,3.41,8.79,3.41,13.99c0,5.2-1.14,9.87-3.41,13.99
			c-2.28,4.13-5.4,7.35-9.38,9.68c-3.98,2.33-8.42,3.49-13.32,3.49c-4.95,0-9.42-1.16-13.39-3.49c-3.98-2.33-7.12-5.55-9.42-9.68
			c-2.3-4.13-3.45-8.79-3.45-13.99c0-5.2,1.15-9.87,3.45-13.99c2.3-4.13,5.44-7.34,9.42-9.64c3.98-2.3,8.44-3.45,13.39-3.45
			C1124.92,3195.86,1129.36,3197.01,1133.33,3199.31z M1110.94,3206.14c-2.65,1.55-4.71,3.78-6.19,6.68
			c-1.48,2.9-2.21,6.28-2.21,10.13c0,3.85,0.74,7.23,2.21,10.13c1.48,2.9,3.54,5.13,6.19,6.68c2.65,1.55,5.68,2.33,9.08,2.33
			c3.35,0,6.34-0.78,8.97-2.33c2.63-1.55,4.68-3.78,6.15-6.68c1.47-2.9,2.21-6.28,2.21-10.13c0-3.85-0.74-7.23-2.21-10.13
			c-1.48-2.9-3.53-5.13-6.15-6.68c-2.63-1.55-5.62-2.33-8.97-2.33C1116.61,3203.81,1113.59,3204.59,1110.94,3206.14z"/>
		<path d="M1185.81,3228.95v20.56h-8.55v-52.97h18.01c6.1,0,10.69,1.45,13.77,4.35c3.08,2.9,4.61,6.88,4.61,11.93
			c0,5-1.58,8.94-4.73,11.82c-3.15,2.88-7.7,4.32-13.65,4.32H1185.81z M1204.94,3212.82c0-3-0.84-5.29-2.51-6.87
			c-1.68-1.58-4.36-2.36-8.07-2.36h-8.55v18.38h8.55C1201.42,3221.97,1204.94,3218.92,1204.94,3212.82z"/>
		<path d="M1252.21,3203.44v16.06h19.51v6.6h-19.51v16.43h21.76v6.98h-30.31v-52.97h30.31v6.9H1252.21z"/>
	</g>
	<g>
		<polygon points="1239.95,2901.88 1239.95,3018.81 1037.94,3018.81 1037.94,2901.88 1003.93,2901.88 1003.93,2935.91 
			784.03,3137.9 1003.93,3137.9 1003.93,3171.5 1037.94,3171.5 1037.94,3052.82 1239.95,3052.82 1239.95,3171.5 1273.97,3171.5 
			1273.97,2901.88 		"/>
		<path d="M734.3,2935.91v-34.04h-33.6v134.81c0,55.4-45.36,100.78-101.21,100.78v34.04H734.3v-33.6l219.87-201.99H734.3z"/>
	</g>
</g>
<g>
	<g>
		<g>
			<path d="M769.89,1152.02c-3.36,0-7.18-0.31-11.47-0.92c-4.28-0.62-8.26-1.83-11.93-3.67c-3.67-1.83-6.49-4.36-8.49-7.57
				c-1.99-3.21-2.52-7.42-1.61-12.61c0.92-4.29,2.68-7.73,5.28-10.32c2.6-2.6,5.58-4.59,8.95-5.96c3.37-1.38,6.81-2.29,10.32-2.75
				c3.52-0.46,6.65-0.69,9.4-0.69c9.48,0,18.66,1.15,27.52,3.44c8.87,2.29,17.43,4.36,25.69,6.19c4.28-4.29,9.25-10.55,14.91-18.81
				c5.66-8.26,11.7-17.66,18.12-28.21c6.42-10.55,13.07-21.94,19.95-34.17c6.88-12.23,13.53-24.31,19.95-36.24
				c14.98-28.13,30.73-58.72,47.25-91.74l0.46,0.46v-1.83c3.05-1.53,5.81-2.9,8.26-4.13c2.44-1.22,4.74-2.14,6.88-2.75
				c2.14-0.92,4.28-1.68,6.42-2.29c-17.43,3.37-32.19,7.8-44.27,13.3c-12.08,5.5-21.87,11.24-29.36,17.2
				c-7.5,5.96-13.15,11.85-16.97,17.66c-3.83,5.81-6.19,10.55-7.11,14.22c-0.92,2.75,0.15,4.13,3.21,4.13c3.36,0,5.96-0.76,7.8-2.29
				c1.83-1.53,3.44-3.28,4.82-5.28c1.38-1.99,2.67-3.74,3.9-5.28c1.22-1.53,3.05-2.29,5.5-2.29c3.36,0,4.59,1.53,3.67,4.59
				c-0.62,4.29-4.06,8.64-10.32,13.07c-6.27,4.44-13.38,6.65-21.33,6.65c-1.83,0-4.13-0.23-6.88-0.69
				c-2.75-0.46-5.28-1.45-7.57-2.98c-2.29-1.53-4.06-3.74-5.28-6.65c-1.23-2.9-1.38-6.8-0.46-11.7c0.92-4.28,4.51-9.93,10.78-16.97
				c6.26-7.03,14.68-13.91,25.23-20.64c10.55-6.72,22.86-12.54,36.93-17.43c14.06-4.89,29.51-7.34,46.33-7.34
				c2.75,0,5.35,0.16,7.8,0.46c1.83,0.31,3.59,0.77,5.28,1.38c1.68,0.62,2.37,1.38,2.06,2.29c0,0.92-0.39,1.61-1.15,2.06
				c-0.77,0.46-1.76,1-2.98,1.61c-1.23,0.62-2.45,1.61-3.67,2.98c-1.23,1.38-2.45,3.6-3.67,6.65
				c-7.96,20.18-16.82,40.22-26.61,60.09c-9.79,19.88-19.65,38.53-29.59,55.96c-9.94,17.43-19.5,33.03-28.67,46.79
				c-9.17,13.76-17.13,24.77-23.85,33.03c-9.17,10.7-14.68,17.12-16.51,19.27c5.81,1.22,10.93,2.29,15.37,3.21
				c4.43,0.92,9.48,1.68,15.14,2.29c5.65,0.61,11.54,0.92,17.66,0.92c5.2,0,10.09-0.31,14.68-0.92c4.59-0.62,9.48-1.83,14.68-3.67
				c4.28-1.53,6.95-3.29,8.03-5.28c1.07-1.99,2.06-2.98,2.98-2.98s1.99,1.07,3.21,3.21c1.22,2.14,1.53,4.43,0.92,6.88
				c-0.31,1.22-0.77,2.75-1.38,4.59c-0.62,1.83-2.22,3.59-4.82,5.28c-2.6,1.68-6.35,3.13-11.24,4.36
				c-4.9,1.22-11.78,1.83-20.64,1.83c-9.17,0-19.65-1.15-31.42-3.44c-11.78-2.29-23.01-4.67-33.71-7.11
				c-8.26,6.11-18.2,11.24-29.82,15.37C790.84,1149.96,779.98,1152.02,769.89,1152.02z M775.4,1118.99c-5.5,0-10.24,0.93-14.22,2.82
				c-3.97,1.87-6.65,3.98-8.03,6.33c-1.38,2.34-0.99,4.68,1.15,7.03c2.14,2.34,6.73,3.98,13.76,4.92c7.04,0,14.22-1.23,21.56-3.67
				c7.34-2.45,14.07-5.5,20.18-9.17c2.45,0.61,4.82,0.99,7.11,1.15c2.29,0.15,4.2,0.38,5.73,0.69c1.83,0.3,3.67,0.46,5.5,0.46
				c-5.81-0.96-10.94-2-15.37-3.12c-4.43-1.12-8.56-2.24-12.38-3.35c-3.82-1.12-7.72-2.08-11.7-2.87
				C784.73,1119.39,780.29,1118.99,775.4,1118.99z"/>
		</g>
		<g>
			<path d="M1140.99,902.94v1.38c-0.31,1.83-0.77,3.75-1.38,5.73c-0.62,1.99-1.23,3.44-1.83,4.36c-0.62,0.92-3.37,3.29-8.26,7.11
				c-4.89,3.83-11.01,8.49-18.35,13.99c-7.34,5.5-15.6,11.55-24.77,18.12c-9.17,6.58-18.2,13.15-27.06,19.72
				c-8.87,6.58-17.36,12.77-25.46,18.58c-8.11,5.81-14.91,10.71-20.41,14.68c-7.34,5.2-15.3,11.09-23.85,17.66
				c-8.57,6.58-16.74,13.3-24.54,20.18c-7.8,6.88-14.53,13.69-20.18,20.41c-5.66,6.73-9.1,12.84-10.32,18.35
				c-0.62,3.37-0.31,6.12,0.92,8.26c0.3,0,3.44-0.38,9.4-1.15c5.96-0.76,13.07-1.61,21.33-2.52c8.26-0.92,16.66-1.76,25.23-2.52
				c8.56-0.76,15.44-1.15,20.64-1.15c10.09,0,18.04,1.68,23.85,5.05c5.81,3.37,8.26,7.34,7.34,11.93
				c-1.23,5.81-3.14,10.09-5.73,12.84c-2.6,2.75-4.21,4.13-4.82,4.13c-1.23,0-1.99-0.46-2.29-1.38c-0.31-0.31-0.46-0.77-0.46-1.38
				c0.61-3.37-3.9-5.81-13.53-7.34c-9.63-1.53-22.71-2.6-39.22-3.21c-1.23,0-3.83,0.15-7.8,0.46c-3.98,0.3-8.11,0.69-12.39,1.15
				c-4.29,0.46-8.34,0.84-12.16,1.15c-3.83,0.3-6.04,0.46-6.65,0.46c-5.5-0.62-9.71-2.14-12.61-4.59
				c-2.91-2.44-5.28-6.42-7.11-11.93c-1.83-5.5-1.83-13.3,0-23.39c0.61-3.36,1.83-7.11,3.67-11.24c1.83-4.13,4.74-8.33,8.72-12.61
				c5.81-6.11,15.29-14.29,28.44-24.54c13.14-10.24,27.75-21.33,43.81-33.26c16.06-11.93,32.49-24.31,49.31-37.16
				c16.81-12.84,31.65-24.77,44.49-35.78c-12.54,0-24.24,0.08-35.09,0.23c-10.86,0.16-20.64,0.62-29.36,1.38
				c-8.72,0.77-16.28,2.06-22.71,3.9c-6.42,1.83-11.47,4.44-15.14,7.8l-0.92,0.92c-0.62,0.62-1.38,0.92-2.29,0.92
				s-1.45-1.07-1.61-3.21c-0.16-2.14,0.07-4.13,0.69-5.96c0.61-2.75,1.76-5.58,3.44-8.49c1.68-2.9,4.36-5.58,8.03-8.03
				c3.67-2.44,8.64-4.43,14.91-5.96c6.26-1.53,14.29-2.29,24.08-2.29c9.17,0,20.1,0.23,32.8,0.69c12.69,0.46,26.38,0.69,41.05,0.69
				c5.81,0,10.32,0.23,13.53,0.69c3.21,0.46,5.66,1,7.34,1.61c1.68,0.62,2.82,1.3,3.44,2.06
				C1139.76,901.18,1140.37,902.02,1140.99,902.94z"/>
		</g>
		<g>
			<path d="M1063.47,1103.4c-0.31-2.15-0.39-4.3-0.23-6.45c0.15-2.15,0.38-4.3,0.69-6.46c2.75-12.9,7.49-24.27,14.22-34.1v-0.47
				c6.72-12.29,14.75-21.73,24.08-28.34c9.32-6.61,18.27-11.45,26.83-14.52c10.09-3.38,20.33-5.38,30.73-5.99
				c1.22-2.42,2.67-5.91,4.36-10.47c1.68-4.56,3.36-9.49,5.05-14.81c1.68-5.32,3.21-10.71,4.59-16.18
				c1.38-5.46,2.52-10.32,3.44-14.58c0.92-3.94,1.38-7.28,1.38-10.02c2.44-0.3,4.66-0.53,6.65-0.69c1.99-0.15,3.9-0.23,5.73-0.23
				h5.96c-8.56,0-16.9-0.38-25-1.15c-8.11-0.76-15.07-1.15-20.87-1.15c-7.04-0.61-12.77-3.28-17.2-8.03
				c-4.44-4.74-5.89-11.08-4.36-19.04c0-0.3,0.23-1.38,0.69-3.21c0.46-1.83,1.38-3.67,2.75-5.5c1.38-1.83,3.21-3.51,5.5-5.05
				c2.29-1.53,5.43-2.29,9.4-2.29c3.97,0,8.56,0.62,13.76,1.83c5.2,1.23,10.24,3.14,15.14,5.73c4.89,2.6,9.32,5.81,13.3,9.63
				c3.97,3.83,6.72,8.34,8.26,13.53c4.89,0,9.78,0.08,14.68,0.23c4.89,0.16,9.25,0.62,13.07,1.38c3.82,0.77,6.8,1.91,8.94,3.44
				c2.14,1.53,3.21,3.83,3.21,6.88c-0.62,3.06-1.61,5.5-2.98,7.34c-1.38,1.83-3.29,3.52-5.73,5.05c-2.45,1.53-5.96,2.29-10.55,2.29
				c-0.92,0-1.15-0.46-0.69-1.38c0.46-0.92,0.46-1.99,0-3.21c-0.46-1.22-1.83-2.52-4.13-3.9c-2.29-1.38-6.65-2.52-13.07-3.44
				c-0.31,3.34-0.54,6.31-0.69,8.89c-0.16,2.58-0.54,5.39-1.15,8.43c-1.53,8.2-3.67,16.18-6.42,23.92
				c-2.75,7.75-6.27,16.48-10.55,26.2c9.17,0,18.27,0.08,27.29,0.23c9.02,0.16,18.42-0.07,28.21-0.69
				c4.59-7.95,9.25-15.83,13.99-23.62c4.74-7.8,9.02-15.06,12.84-21.79c3.82-6.72,6.95-12.54,9.4-17.43
				c2.44-4.89,3.97-8.56,4.59-11.01c0.3-1.83-0.31-2.75-1.83-2.75c-0.31,0-0.85,0.16-1.61,0.46c-0.77,0.31-1.46,0.46-2.06,0.46
				c-1.53,0-2.29-0.3-2.29-0.92c-0.31-0.3-0.31-0.76,0-1.38c0.61-3.05,2.9-5.28,6.88-6.65c3.97-1.38,8.87-2.06,14.68-2.06
				c3.67,0,6.88,0.92,9.63,2.75c2.75,1.83,3.67,5.35,2.75,10.55c-0.62,3.06-2.06,7.04-4.36,11.93c-2.29,4.9-5.2,10.32-8.72,16.28
				c-3.52,5.96-7.42,12.46-11.7,19.49c-4.29,7.04-8.72,14.07-13.3,21.1c0.92-0.61,2.44-1.3,4.59-2.06c2.14-0.76,3.97-1.76,5.5-2.98
				c0.92-0.61,1.99-1.91,3.21-3.9c1.22-1.99,2.14-2.98,2.75-2.98c0.92,0,2.06,1,3.44,2.98c1.38,1.99,1.76,4.52,1.15,7.57
				c-0.31,1.23-0.69,2.52-1.15,3.9c-0.46,1.38-1.61,2.71-3.44,4c-1.83,1.29-4.59,2.5-8.26,3.63c-3.67,1.13-8.87,2.18-15.6,3.15
				c-7.65,12.77-14.91,25.62-21.79,38.53c-6.88,12.92-12.01,23.48-15.37,31.69c-0.31,1.52-0.23,2.82,0.23,3.88
				c0.46,1.06,2.06,1.59,4.82,1.59c3.05,0,6.88-2.06,11.47-6.19c4.59-4.13,9.02-8.72,13.3-13.76c4.28-5.05,7.95-9.7,11.01-13.99
				c3.05-4.28,4.74-6.57,5.05-6.88c0.61-1.22,1.38-1.76,2.29-1.61c0.92,0.16,0.61,2.52-0.92,7.11c-1.23,3.37-3.52,7.65-6.88,12.84
				c-3.37,5.2-7.34,10.17-11.93,14.91c-4.59,4.74-9.56,8.94-14.91,12.61c-5.35,3.67-10.32,5.5-14.91,5.5
				c-2.14,0-4.52-0.23-7.11-0.69c-2.6-0.46-5.05-1.45-7.34-2.98c-2.29-1.53-3.98-3.74-5.05-6.65c-1.08-2.9-1.15-6.95-0.23-12.16
				c1.22-6.42,4.74-14.98,10.55-25.69c5.81-10.7,12.69-22.63,20.64-35.78c-6.12,0-10.94,0-14.45,0c-3.52,0-6.88,0.08-10.09,0.23
				c-3.21,0.16-7.04,0.23-11.47,0.23c-4.44,0-10.63,0-18.58,0c-1.23,2.45-3.67,6.96-7.34,13.53c-3.67,6.58-8.11,13.99-13.3,22.25
				c-5.2,8.26-11.09,16.9-17.66,25.92c-6.58,9.02-13.3,17.28-20.18,24.77c-6.88,7.49-13.76,13.6-20.64,18.35
				c-6.88,4.74-13.23,7.11-19.04,7.11c-2.75,0-5.12-0.92-7.11-2.75c-1.99-1.83-3.67-4.13-5.05-6.88c-1.38-2.75-2.37-5.66-2.98-8.72
				C1063.31,1109.05,1063.16,1106.15,1063.47,1103.4z M1114.38,1031.38c-6.12,4.29-11.24,9.1-15.37,14.45
				c-4.13,5.35-7.42,10.71-9.86,16.05c-2.45,5.35-4.29,10.32-5.5,14.91c-1.23,4.59-1.99,8.11-2.29,10.55
				c-0.62,3.67-0.85,6.65-0.69,8.95c0.15,2.29,0.53,4.06,1.15,5.28c0.61,1.53,1.38,2.59,2.29,3.21c0.92-0.31,1.68-0.46,2.29-0.46
				c3.67-0.92,7.8-3.59,12.39-8.03c4.59-4.43,9.32-9.7,14.22-15.83c4.89-6.11,9.7-12.69,14.45-19.72
				c4.74-7.03,8.94-13.6,12.61-19.72c3.67-6.11,6.72-11.24,9.17-15.37c2.44-4.13,3.82-6.49,4.13-7.11l-1.38,2.75
				c2.44-0.3,4.43-0.61,5.96-0.92c1.53-0.3,2.98-0.53,4.36-0.69c1.38-0.15,2.98-0.3,4.82-0.46c1.83-0.15,4.43-0.38,7.8-0.69
				c-7.65,0-14.38,0.08-20.18,0.23c-5.81,0.16-11.01,0.69-15.6,1.61s-8.87,2.29-12.84,4.13
				C1122.33,1026.33,1118.35,1028.63,1114.38,1031.38z M1173.1,926.33c-0.62-0.61-1.23-1.91-1.83-3.9
				c-0.62-1.99-1.68-4.13-3.21-6.42c-1.53-2.29-3.9-4.59-7.11-6.88c-3.21-2.29-7.57-4.05-13.07-5.28c-4.59,0-7.42,0.77-8.49,2.29
				c-1.07,1.53-1.76,2.91-2.06,4.13c-0.62,3.06,0.07,5.66,2.06,7.8c1.99,2.14,4.51,3.83,7.57,5.05c3.05,1.23,6.26,2.14,9.63,2.75
				c3.36,0.62,6.26,0.92,8.72,0.92c1.22,0,2.36,0,3.44,0c1.07,0,2.36-0.15,3.9-0.46H1173.1z"/>
		</g>
	</g>
	<g>
		<path d="M1020.53,1406.43c-103.12,0-200.07-40.16-272.99-113.07c-72.92-72.92-113.07-169.86-113.07-272.98h11.98
			c0,206.27,167.81,374.08,374.08,374.08s374.08-167.81,374.08-374.08h11.98c0,103.12-40.16,200.07-113.07,272.98
			C1220.6,1366.27,1123.65,1406.43,1020.53,1406.43z"/>
	</g>
	<g>
		<path d="M681.31,889.34l-1.59-7.83c4.69-0.47,8.6-3.49,10.65-8.09c2.4-5.37,1.63-10.59-2.02-12.22c-4.42-1.97-9.9,3.13-14.79,7.63
			c-4.99,4.5-10.68,9.43-18.19,6.08c-7.83-3.5-10.26-12.73-6.42-21.33c3.05-6.82,8.62-10.46,14.74-10.07l1.37,7.3
			c-3.9,0.04-7.18,2.53-8.73,6c-1.96,4.39-0.79,9.11,2.59,10.62c3.74,1.67,7.05-2.16,12.13-6.86c6.7-6.08,12.97-10.33,20.51-6.97
			c8.49,3.79,10.66,13.58,6.33,23.28C694.39,884.75,688.05,889.07,681.31,889.34z"/>
		<path d="M687.39,787.75l4.78-6.69l42.62,30.45l-4.78,6.69L687.39,787.75z"/>
		<path d="M763.38,704.98l35.86,39.6l-0.29,0.26l-48.32-3.45l22.92,25.31l-6.09,5.52l-35.81-39.55l0.31-0.28l48.23,3.45
			l-22.92-25.31L763.38,704.98z"/>
		<path d="M872.66,670.98c7.05,13.87,1.42,27.74-10.71,33.91c-13.58,6.91-29.86,1.55-36.59-11.68c-6.74-13.26-1.46-29.69,11.8-36.43
			c5.89-2.96,14.06-3.54,20.64-1.49l-0.99,8.16c-5.47-1.74-11.55-1.49-15.98,0.76c-8.51,4.33-12.94,15.55-8.03,25.22
			c4.65,9.15,15.75,12.99,25.71,7.92c8.02-4.08,11.56-12.04,7.94-19.16l-0.07-0.14l-14.45,7.35l-3.42-6.72l22.1-11.23
			C871.26,668.44,872,669.67,872.66,670.98z"/>
		<path d="M1029.88,613.57l1.5,53.39l-0.39,0.01l-34.46-34.03l0.96,34.13l-8.22,0.23l-1.5-53.32l0.42-0.01l34.4,33.97l-0.96-34.13
			L1029.88,613.57z"/>
		<path d="M1197.1,653.86l-20.46,48.22l-7.57-3.21l8.64-20.37l-20.88-8.86l-8.64,20.37l-7.54-3.2l20.46-48.22l7.54,3.2l-8.63,20.34
			l20.88,8.86l8.63-20.34L1197.1,653.86z"/>
		<path d="M1234.03,704.82c9.24-11.74,26.34-13.83,38.06-4.61c11.69,9.2,13.74,26.35,4.5,38.09c-9.16,11.64-26.27,13.64-37.99,4.42
			C1226.91,733.52,1224.87,716.46,1234.03,704.82z M1270.09,733.11c6.41-8.14,4.97-20.02-3.15-26.41
			c-8.12-6.39-19.95-4.95-26.36,3.19c-6.37,8.09-4.96,19.91,3.16,26.29C1251.86,742.57,1263.72,741.2,1270.09,733.11z"/>
		<path d="M1334.49,762.05l10.59,13.95c6.13,8.07,4.95,19.36-2.63,25.12c-7.43,5.64-18.49,3.63-24.61-4.44l-5.62-7.4l-14.46,10.98
			l-4.97-6.55L1334.49,762.05z M1337.53,794.53c3.98-3.02,4.45-9.13,1.05-13.6l-5.62-7.4l-14.26,10.82l5.59,7.42
			C1327.67,796.26,1333.63,797.49,1337.53,794.53z"/>
		<path d="M1381.84,852.71l-12.26,5.45l8.05,18.11l-7.48,3.33l-8.05-18.11l-13.24,5.89l9.33,20.99l-7.48,3.33l-12.67-28.5
			l47.86-21.28l12.67,28.5l-7.39,3.29L1381.84,852.71z"/>
	</g>
	<g>
		<path d="M1020.53,1353.38c-88.95,0-172.58-34.64-235.48-97.54c-62.9-62.9-97.54-146.52-97.54-235.48s34.64-172.58,97.54-235.48
			s146.52-97.54,235.48-97.54s172.58,34.64,235.48,97.54c62.9,62.9,97.54,146.52,97.54,235.48s-34.64,172.58-97.54,235.48
			C1193.11,1318.74,1109.48,1353.38,1020.53,1353.38z M1020.53,699.34c-177.02,0-321.03,144.02-321.03,321.03
			s144.02,321.03,321.03,321.03s321.03-144.02,321.03-321.03S1197.55,699.34,1020.53,699.34z"/>
	</g>
</g>
</svg>
